# xmcd CD database file
#
# Track frame offsets:
#	150
#	14072
#	28385
#	41727
#	55315
#	68862
#	83333
#	95692
#	111226
#	123678
#	137482
#	151887
#	167600
#	183078
#	195156
#	207879
#	220926
#	232807
#	245515
#	258271
#	270906
#	286349
#	298872
#	313774
#	327238
#
# Disc length: 4534 seconds
#
# Revision: 0
# Processed by: cddbd v1.5.1PL2 Copyright (c) Steve Scherf et al.
# Submitted via: CDex 1.51
#
DISCID=6811b419
DTITLE=Tampa Red - Roots of the Blues
DYEAR=2004
DGENRE=Blues
TTITLE0=Kingfish Blues
TTITLE1=Boogie Woogie Dance
TTITLE2=Sweet Little Angel
TTITLE3=Grievin' and Worrin'
TTITLE4=Black Hearted Blues
TTITLE5=Stockyard Fire
TTITLE6=Stormy Sea Blues
TTITLE7=It's Heated
TTITLE8=Mean Mistreater Blues
TTITLE9=Delta Woman Blues
TTITLE10=Mama Don't Allow No Easy Riders Here
TTITLE11=My Daddy Rocks Me (With One Steady Roll)
TTITLE12=Keep On Dealin'
TTITLE13=Mean Old Tom Cat
TTITLE14=Don't Deal With The Devil
TTITLE15=Denver Blues
TTITLE16=Uncle Bud (Dog Gone Him)
TTITLE17=You Can't Get That Stuff No More
TTITLE18=What's That Tastes Like Gravy
TTITLE19=Forgive Me Please
TTITLE20=Worried Devil Blues
TTITLE21=Dead Cat On That Lines
TTITLE22=You Got To Reap What You Sow
TTITLE23=She's Love Crazy
TTITLE24=House Rent Scuffle
EXTD=YEAR: 2004
EXTT0=
EXTT1=
EXTT2=
EXTT3=
EXTT4=
EXTT5=
EXTT6=
EXTT7=
EXTT8=
EXTT9=
EXTT10=
EXTT11=
EXTT12=
EXTT13=
EXTT14=
EXTT15=
EXTT16=
EXTT17=
EXTT18=
EXTT19=
EXTT20=
EXTT21=
EXTT22=
EXTT23=
EXTT24=
PLAYORDER=
